<?xml version="1.0" encoding="UTF-8" standalone="no"?>
<!-- Created with Inkscape (http://www.inkscape.org/) -->

<svg
   xmlns:dc="http://purl.org/dc/elements/1.1/"
   xmlns:cc="http://creativecommons.org/ns#"
   xmlns:rdf="http://www.w3.org/1999/02/22-rdf-syntax-ns#"
   xmlns:svg="http://www.w3.org/2000/svg"
   xmlns="http://www.w3.org/2000/svg"
   xmlns:sodipodi="http://sodipodi.sourceforge.net/DTD/sodipodi-0.dtd"
   xmlns:inkscape="http://www.inkscape.org/namespaces/inkscape"
   id="svg3355"
   version="1.1"
   inkscape:version="0.91 r13725"
   xml:space="preserve"
   width="46.4375"
   height="44.837502"
   viewBox="0 0 46.4375 44.837502"
   sodipodi:docname="logo.svg"><metadata
     id="metadata3361"><rdf:RDF><cc:Work
         rdf:about=""><dc:format>image/svg+xml</dc:format><dc:type
           rdf:resource="http://purl.org/dc/dcmitype/StillImage" /><dc:title></dc:title></cc:Work></rdf:RDF></metadata><defs
     id="defs3359"><clipPath
       clipPathUnits="userSpaceOnUse"
       id="clipPath3371"><path
         d="M 371.219,126.996 C 375.496,93.7969 334.328,34.0977 199.285,7.79297 67.0273,-17.9688 11.332,25.6367 5.4375,58.5898 -3.65625,109.449 88.3242,100.453 190.219,113.578 c 101.89,13.133 173.515,96.391 181,13.418 z"
         id="path3373"
         inkscape:connector-curvature="0" /></clipPath><linearGradient
       x1="0"
       y1="0"
       x2="1"
       y2="0"
       gradientUnits="userSpaceOnUse"
       gradientTransform="matrix(-185.722,-81.6645,81.6645,-185.722,258.381,108.068)"
       spreadMethod="pad"
       id="linearGradient3375"><stop
         style="stop-opacity:1;stop-color:#912328"
         offset="0"
         id="stop3377" /><stop
         style="stop-opacity:1;stop-color:#c62229"
         offset="1"
         id="stop3379" /></linearGradient><clipPath
       clipPathUnits="userSpaceOnUse"
       id="clipPath3387"><path
         d="M 366.402,133.418 C 370.68,100.215 329.508,40.5195 194.469,14.2148 62.2109,-11.5469 6.51172,32.0586 0.621094,65.0117 -8.47266,115.875 83.5039,106.875 185.398,120.008 c 101.899,13.125 173.52,96.379 181.004,13.41 l 0,0 z"
         id="path3389"
         inkscape:connector-curvature="0" /></clipPath><radialGradient
       fx="0"
       fy="0"
       cx="0"
       cy="0"
       r="1"
       gradientUnits="userSpaceOnUse"
       gradientTransform="matrix(337.85,-3.91089,1.76814,152.735,87.9395,88.095)"
       spreadMethod="pad"
       id="radialGradient3391"><stop
         style="stop-opacity:1;stop-color:#912328"
         offset="0"
         id="stop3393" /><stop
         style="stop-opacity:1;stop-color:#c62229"
         offset="1"
         id="stop3395" /></radialGradient><clipPath
       clipPathUnits="userSpaceOnUse"
       id="clipPath3403"><path
         d="m 269.246,96.1289 c 2.734,-21.207 -23.558,-39.5 -80.109,-46.7851 -56.543,-7.2852 -86.86,5.6171 -89.8909,26.7851 C 88.168,153.547 65.6133,223.336 27.3477,291.691 l 236.6363,32.368 c -10.05,-85.594 -1.589,-153.61 5.262,-227.9301 z"
         id="path3405"
         inkscape:connector-curvature="0" /></clipPath><linearGradient
       x1="0"
       y1="0"
       x2="1"
       y2="0"
       gradientUnits="userSpaceOnUse"
       gradientTransform="matrix(-179.49,6.421,-6.421,-179.49,270.785,183.511)"
       spreadMethod="pad"
       id="linearGradient3407"><stop
         style="stop-opacity:1;stop-color:#912328"
         offset="0"
         id="stop3409" /><stop
         style="stop-opacity:1;stop-color:#c62229"
         offset="1"
         id="stop3411" /></linearGradient><clipPath
       clipPathUnits="userSpaceOnUse"
       id="clipPath3419"><path
         d="M 50.3867,288.082 C 78.8203,229.488 101.102,170.008 115.402,111.41 l 20.301,0.805 c -16.004,60.617 -33.332,119.922 -56.3397,173.539 l -28.9766,2.324 0,0.004 z"
         id="path3421"
         inkscape:connector-curvature="0" /></clipPath><linearGradient
       x1="0"
       y1="0"
       x2="1"
       y2="0"
       gradientUnits="userSpaceOnUse"
       gradientTransform="matrix(21.779,0,0,21.779,89.9488,199.747)"
       spreadMethod="pad"
       id="linearGradient3423"><stop
         style="stop-opacity:1;stop-color:#e0dfde"
         offset="0"
         id="stop3425" /><stop
         style="stop-opacity:1;stop-color:#cdcdcd"
         offset="1"
         id="stop3427" /></linearGradient><clipPath
       clipPathUnits="userSpaceOnUse"
       id="clipPath3435"><path
         d="m 110.75,278.449 c 26.406,-62.91 35.938,-114.57 48.965,-168.558 l 23.754,3.211 c -14.02,55.648 -25.375,113.07 -32.586,168.718 l -40.133,-3.371 z"
         id="path3437"
         inkscape:connector-curvature="0" /></clipPath><linearGradient
       x1="0"
       y1="0"
       x2="1"
       y2="0"
       gradientUnits="userSpaceOnUse"
       gradientTransform="matrix(38.1272,0,0,38.1272,148.875,195.856)"
       spreadMethod="pad"
       id="linearGradient3439"><stop
         style="stop-opacity:1;stop-color:#e0dfde"
         offset="0"
         id="stop3441" /><stop
         style="stop-opacity:1;stop-color:#cdcdcd"
         offset="1"
         id="stop3443" /></linearGradient><clipPath
       clipPathUnits="userSpaceOnUse"
       id="clipPath3451"><path
         d="m 173.984,279.977 c 17.817,-54.555 23.664,-109.114 32.676,-163.668 l 26.653,9.074 c -10.02,55.086 -24.809,107.656 -26.012,164.945 l -33.317,-10.351 z"
         id="path3453"
         inkscape:connector-curvature="0" /></clipPath><linearGradient
       x1="0"
       y1="0"
       x2="1"
       y2="0"
       gradientUnits="userSpaceOnUse"
       gradientTransform="matrix(31.4313,0,0,31.4313,205.417,203.319)"
       spreadMethod="pad"
       id="linearGradient3455"><stop
         style="stop-opacity:1;stop-color:#e0dfde"
         offset="0"
         id="stop3457" /><stop
         style="stop-opacity:1;stop-color:#cdcdcd"
         offset="1"
         id="stop3459" /></linearGradient><clipPath
       clipPathUnits="userSpaceOnUse"
       id="clipPath3467"><path
         d="m 263.961,322.48 -27.188,-20 c -0.753,-59.125 8.532,-113.23 16.875,-167.812 l 11.25,9.687 c -5.097,56.262 -8.539,112.063 -0.937,178.125 z"
         id="path3469"
         inkscape:connector-curvature="0" /></clipPath><linearGradient
       x1="0"
       y1="0"
       x2="1"
       y2="0"
       gradientUnits="userSpaceOnUse"
       gradientTransform="matrix(28.1684,0,0,28.1684,236.732,228.575)"
       spreadMethod="pad"
       id="linearGradient3471"><stop
         style="stop-opacity:1;stop-color:#e0dfde"
         offset="0"
         id="stop3473" /><stop
         style="stop-opacity:1;stop-color:#cdcdcd"
         offset="1"
         id="stop3475" /></linearGradient><clipPath
       clipPathUnits="userSpaceOnUse"
       id="clipPath3483"><path
         d="m 263.648,156.551 c -55.48,-26.883 -124.55,-38.238 -174.6871,-25 4.1407,-18.11 7.6055,-36.3987 10.3164,-55.3166 3.0237,-21.1641 33.4527,-34.1602 89.9957,-26.875 56.543,7.2851 82.731,25.6719 80,46.875 -1.886,20.4806 -3.91,40.2856 -5.625,60.3166 z"
         id="path3485"
         inkscape:connector-curvature="0" /></clipPath><linearGradient
       x1="0"
       y1="0"
       x2="1"
       y2="0"
       gradientUnits="userSpaceOnUse"
       gradientTransform="matrix(180.507,-54.6135,54.6135,180.507,98.4266,133.222)"
       spreadMethod="pad"
       id="linearGradient3487"><stop
         style="stop-opacity:1;stop-color:#29458c"
         offset="0"
         id="stop3489" /><stop
         style="stop-opacity:1;stop-color:#3a62b7"
         offset="1"
         id="stop3491" /></linearGradient><clipPath
       clipPathUnits="userSpaceOnUse"
       id="clipPath3499"><path
         d="M 116.773,119.98 110.836,98.7305 95.5273,97.793 c 0.3086,-1.7735 0.6329,-3.5352 0.9336,-5.3125 l 10.9371,-7.1875 -5,-17.5 c 0.372,-0.6407 0.813,-1.2578 1.25,-1.875 l 15.313,11.875 18.437,-12.1875 -7.812,20.9375 17.187,13.75 -22.187,-0.9414 -7.813,20.6254 0,0.003 z"
         id="path3501"
         inkscape:connector-curvature="0" /></clipPath><radialGradient
       fx="0"
       fy="0"
       cx="0"
       cy="0"
       r="1"
       gradientUnits="userSpaceOnUse"
       gradientTransform="matrix(35.5556,-26.4258,16.2173,21.8187,107.805,92.792)"
       spreadMethod="pad"
       id="radialGradient3503"><stop
         style="stop-opacity:1;stop-color:#e0dfde"
         offset="0"
         id="stop3505" /><stop
         style="stop-opacity:1;stop-color:#cdcdcd"
         offset="1"
         id="stop3507" /></radialGradient><clipPath
       clipPathUnits="userSpaceOnUse"
       id="clipPath3515"><path
         d="m 212.723,64.3086 -19.043,11.5508 -16.809,-14.6133 5.106,21.6797 -19.09,11.4687 22.191,1.8477 5.012,21.6988 8.613,-20.5387 22.188,1.9454 -16.871,-14.543 8.703,-20.4961 z"
         id="path3517"
         inkscape:connector-curvature="0" /></clipPath><radialGradient
       fx="0"
       fy="0"
       cx="0"
       cy="0"
       r="1"
       gradientUnits="userSpaceOnUse"
       gradientTransform="matrix(28.8473,-1.20212,1.19151,28.5716,178.512,89.595)"
       spreadMethod="pad"
       id="radialGradient3519"><stop
         style="stop-opacity:1;stop-color:#e0dfde"
         offset="0"
         id="stop3521" /><stop
         style="stop-opacity:1;stop-color:#cdcdcd"
         offset="1"
         id="stop3523" /></radialGradient><clipPath
       clipPathUnits="userSpaceOnUse"
       id="clipPath3531"><path
         d="m 242.398,141.23 0.313,-22.187 -21.25,-6.875 21.25,-6.875 0,-22.1875 13.125,18.1245 13.437,-4.3745 c -0.281,3.082 -0.648,6.0115 -0.937,9.0625 l -4.688,6.25 3.75,5 c -0.304,3.234 -0.628,6.473 -0.937,9.687 l -10.625,-3.437 -13.438,17.812 z"
         id="path3533"
         inkscape:connector-curvature="0" /></clipPath><radialGradient
       fx="0"
       fy="0"
       cx="0"
       cy="0"
       r="1"
       gradientUnits="userSpaceOnUse"
       gradientTransform="matrix(23.9062,0,0,29.0628,245.369,112.169)"
       spreadMethod="pad"
       id="radialGradient3535"><stop
         style="stop-opacity:1;stop-color:#e0dfde"
         offset="0"
         id="stop3537" /><stop
         style="stop-opacity:1;stop-color:#cdcdcd"
         offset="1"
         id="stop3539" /></radialGradient><clipPath
       clipPathUnits="userSpaceOnUse"
       id="clipPath3547"><path
         d="m 264.012,326.832 c 3.179,-24.652 -47.535,-51.5 -113.27,-59.965 -65.7264,-8.469 -121.5857,4.649 -124.7615,29.297 -3.1758,24.649 47.539,51.5 113.2655,59.965 65.731,8.469 121.59,-4.649 124.766,-29.297 z"
         id="path3549"
         inkscape:connector-curvature="0" /></clipPath><radialGradient
       fx="0"
       fy="0"
       cx="0"
       cy="0"
       r="1"
       gradientUnits="userSpaceOnUse"
       gradientTransform="matrix(119.016,15.3298,-5.75242,44.6319,98.4413,311.498)"
       spreadMethod="pad"
       id="radialGradient3551"><stop
         style="stop-opacity:1;stop-color:#912328"
         offset="0"
         id="stop3553" /><stop
         style="stop-opacity:1;stop-color:#c62229"
         offset="1"
         id="stop3555" /></radialGradient></defs><sodipodi:namedview
     pagecolor="#ffffff"
     bordercolor="#666666"
     borderopacity="1"
     objecttolerance="10"
     gridtolerance="10"
     guidetolerance="10"
     inkscape:pageopacity="0"
     inkscape:pageshadow="2"
     inkscape:window-width="1855"
     inkscape:window-height="1056"
     id="namedview3357"
     showgrid="false"
     inkscape:zoom="20.496236"
     inkscape:cx="23.21875"
     inkscape:cy="22.418751"
     inkscape:window-x="65"
     inkscape:window-y="24"
     inkscape:window-maximized="1"
     inkscape:current-layer="g3363" /><g
     id="g3363"
     inkscape:groupmode="layer"
     inkscape:label="ink_ext_XXXXXX"
     transform="matrix(1.25,0,0,-1.25,0,44.8375)"><g
       id="g3365"
       transform="scale(0.1,0.1)"><g
         id="g3367"><g
           id="g3369"
           clip-path="url(#clipPath3371)"><path
             d="M 371.219,126.996 C 375.496,93.7969 334.328,34.0977 199.285,7.79297 67.0273,-17.9688 11.332,25.6367 5.4375,58.5898 -3.65625,109.449 88.3242,100.453 190.219,113.578 c 101.89,13.133 173.515,96.391 181,13.418"
             style="fill:url(#linearGradient3375);fill-opacity:1;fill-rule:nonzero;stroke:none"
             id="path3381"
             inkscape:connector-curvature="0" /></g></g><g
         id="g3383"><g
           id="g3385"
           clip-path="url(#clipPath3387)"><path
             d="M 366.402,133.418 C 370.68,100.215 329.508,40.5195 194.469,14.2148 62.2109,-11.5469 6.51172,32.0586 0.621094,65.0117 -8.47266,115.875 83.5039,106.875 185.398,120.008 c 101.899,13.125 173.52,96.379 181.004,13.41 l 0,0"
             style="fill:url(#radialGradient3391);fill-opacity:1;fill-rule:nonzero;stroke:none"
             id="path3397"
             inkscape:connector-curvature="0" /></g></g><g
         id="g3399"><g
           id="g3401"
           clip-path="url(#clipPath3403)"><path
             d="m 269.246,96.1289 c 2.734,-21.207 -23.558,-39.5 -80.109,-46.7851 -56.543,-7.2852 -86.86,5.6171 -89.8909,26.7851 C 88.168,153.547 65.6133,223.336 27.3477,291.691 l 236.6363,32.368 c -10.05,-85.594 -1.589,-153.61 5.262,-227.9301"
             style="fill:url(#linearGradient3407);fill-opacity:1;fill-rule:nonzero;stroke:none"
             id="path3413"
             inkscape:connector-curvature="0" /></g></g><g
         id="g3415"><g
           id="g3417"
           clip-path="url(#clipPath3419)"><path
             d="M 50.3867,288.082 C 78.8203,229.488 101.102,170.008 115.402,111.41 l 20.301,0.805 c -16.004,60.617 -33.332,119.922 -56.3397,173.539 l -28.9766,2.324 0,0.004"
             style="fill:url(#linearGradient3423);fill-opacity:1;fill-rule:nonzero;stroke:none"
             id="path3429"
             inkscape:connector-curvature="0" /></g></g><g
         id="g3431"><g
           id="g3433"
           clip-path="url(#clipPath3435)"><path
             d="m 110.75,278.449 c 26.406,-62.91 35.938,-114.57 48.965,-168.558 l 23.754,3.211 c -14.02,55.648 -25.375,113.07 -32.586,168.718 l -40.133,-3.371"
             style="fill:url(#linearGradient3439);fill-opacity:1;fill-rule:nonzero;stroke:none"
             id="path3445"
             inkscape:connector-curvature="0" /></g></g><g
         id="g3447"><g
           id="g3449"
           clip-path="url(#clipPath3451)"><path
             d="m 173.984,279.977 c 17.817,-54.555 23.664,-109.114 32.676,-163.668 l 26.653,9.074 c -10.02,55.086 -24.809,107.656 -26.012,164.945 l -33.317,-10.351"
             style="fill:url(#linearGradient3455);fill-opacity:1;fill-rule:nonzero;stroke:none"
             id="path3461"
             inkscape:connector-curvature="0" /></g></g><g
         id="g3463"><g
           id="g3465"
           clip-path="url(#clipPath3467)"><path
             d="m 263.961,322.48 -27.188,-20 c -0.753,-59.125 8.532,-113.23 16.875,-167.812 l 11.25,9.687 c -5.097,56.262 -8.539,112.063 -0.937,178.125"
             style="fill:url(#linearGradient3471);fill-opacity:1;fill-rule:nonzero;stroke:none"
             id="path3477"
             inkscape:connector-curvature="0" /></g></g><g
         id="g3479"><g
           id="g3481"
           clip-path="url(#clipPath3483)"><path
             d="m 263.648,156.551 c -55.48,-26.883 -124.55,-38.238 -174.6871,-25 4.1407,-18.11 7.6055,-36.3987 10.3164,-55.3166 3.0237,-21.1641 33.4527,-34.1602 89.9957,-26.875 56.543,7.2851 82.731,25.6719 80,46.875 -1.886,20.4806 -3.91,40.2856 -5.625,60.3166"
             style="fill:url(#linearGradient3487);fill-opacity:1;fill-rule:nonzero;stroke:none"
             id="path3493"
             inkscape:connector-curvature="0" /></g></g><g
         id="g3495"><g
           id="g3497"
           clip-path="url(#clipPath3499)"><path
             d="M 116.773,119.98 110.836,98.7305 95.5273,97.793 c 0.3086,-1.7735 0.6329,-3.5352 0.9336,-5.3125 l 10.9371,-7.1875 -5,-17.5 c 0.372,-0.6407 0.813,-1.2578 1.25,-1.875 l 15.313,11.875 18.437,-12.1875 -7.812,20.9375 17.187,13.75 -22.187,-0.9414 -7.813,20.6254 0,0.003"
             style="fill:url(#radialGradient3503);fill-opacity:1;fill-rule:nonzero;stroke:none"
             id="path3509"
             inkscape:connector-curvature="0" /></g></g><g
         id="g3511"><g
           id="g3513"
           clip-path="url(#clipPath3515)"><path
             d="m 212.723,64.3086 -19.043,11.5508 -16.809,-14.6133 5.106,21.6797 -19.09,11.4687 22.191,1.8477 5.012,21.6988 8.613,-20.5387 22.188,1.9454 -16.871,-14.543 8.703,-20.4961"
             style="fill:url(#radialGradient3519);fill-opacity:1;fill-rule:nonzero;stroke:none"
             id="path3525"
             inkscape:connector-curvature="0" /></g></g><g
         id="g3527"><g
           id="g3529"
           clip-path="url(#clipPath3531)"><path
             d="m 242.398,141.23 0.313,-22.187 -21.25,-6.875 21.25,-6.875 0,-22.1875 13.125,18.1245 13.437,-4.3745 c -0.281,3.082 -0.648,6.0115 -0.937,9.0625 l -4.688,6.25 3.75,5 c -0.304,3.234 -0.628,6.473 -0.937,9.687 l -10.625,-3.437 -13.438,17.812"
             style="fill:url(#radialGradient3535);fill-opacity:1;fill-rule:nonzero;stroke:none"
             id="path3541"
             inkscape:connector-curvature="0" /></g></g><g
         id="g3543"><g
           id="g3545"
           clip-path="url(#clipPath3547)"><path
             d="m 264.012,326.832 c 3.179,-24.652 -47.535,-51.5 -113.27,-59.965 -65.7264,-8.469 -121.5857,4.649 -124.7615,29.297 -3.1758,24.649 47.539,51.5 113.2655,59.965 65.731,8.469 121.59,-4.649 124.766,-29.297"
             style="fill:url(#radialGradient3551);fill-opacity:1;fill-rule:nonzero;stroke:none"
             id="path3557"
             inkscape:connector-curvature="0" /></g></g></g></g></svg>